<svg id="svg" version="1.1" xmlns="http://www.w3.org/2000/svg" xmlns:xlink="http://www.w3.org/1999/xlink" width="400" height="400" viewBox="0, 0, 400,400"><circle cx="200" cy="200" r="180" stroke-width="0" fill="#fff"/><g id="svg"><path id="path0" d="M299.000 123.557 C 291.996 124.902,280.207 128.737,266.750 134.048 L 261.667 136.054 261.667 141.694 C 261.667 144.796,261.764 147.333,261.882 147.333 C 262.001 147.333,264.814 146.217,268.132 144.853 C 288.458 136.500,306.725 130.926,306.407 133.175 C 305.301 141.002,285.937 160.172,265.583 173.593 L 261.333 176.395 261.333 183.035 L 261.333 189.676 262.496 189.190 C 263.136 188.923,265.498 187.595,267.746 186.239 C 280.892 178.313,324.201 165.993,342.017 165.112 C 347.926 164.820,348.345 165.113,346.850 168.494 C 342.257 178.879,315.043 198.663,269.590 224.660 C 259.251 230.573,260.251 229.262,260.401 236.719 L 260.500 241.605 262.667 240.351 C 263.858 239.662,269.858 236.204,276.000 232.668 C 337.004 197.547,362.153 176.651,357.085 165.294 C 353.939 158.243,345.184 154.655,334.333 155.970 C 328.352 156.695,309.513 160.864,299.002 163.789 C 296.711 164.426,294.805 164.916,294.766 164.877 C 294.728 164.839,295.906 163.763,297.384 162.487 C 308.444 152.940,316.307 141.248,316.326 134.320 C 316.347 126.981,308.041 121.821,299.000 123.557 M249.000 141.466 C 229.906 149.983,189.334 170.361,157.667 187.340 C 155.375 188.569,146.600 193.140,138.167 197.498 C 90.714 222.019,63.333 238.679,63.333 243.029 C 63.333 245.690,65.319 245.722,69.684 243.130 C 89.478 231.375,128.198 209.635,128.519 210.096 C 128.546 210.135,128.223 212.792,127.801 216.000 C 126.666 224.636,124.396 247.017,119.839 294.500 C 118.642 306.967,117.575 317.734,117.467 318.428 C 117.054 321.086,118.675 321.997,121.123 320.481 C 124.280 318.527,130.302 315.027,131.916 314.209 C 132.870 313.726,134.667 312.680,135.909 311.886 C 137.151 311.092,139.367 309.794,140.833 309.001 C 144.472 307.035,172.482 291.421,187.167 283.171 C 198.021 277.074,211.207 269.605,242.500 251.828 L 253.167 245.769 253.261 242.011 C 253.344 238.743,253.289 238.279,252.844 238.450 C 252.562 238.558,247.869 241.182,242.416 244.280 C 236.962 247.379,228.825 251.979,224.333 254.503 C 219.842 257.027,213.092 260.849,209.333 262.998 C 195.324 271.005,172.744 283.670,148.167 297.306 C 142.117 300.663,136.159 303.978,134.927 304.673 L 132.688 305.936 132.856 304.552 C 133.038 303.046,136.614 264.888,138.485 244.500 C 139.974 228.261,142.000 204.823,142.000 203.827 C 142.000 203.181,142.606 202.749,145.750 201.147 C 147.813 200.097,155.425 196.132,162.667 192.336 C 169.908 188.540,179.883 183.359,184.833 180.822 C 189.783 178.285,198.858 173.601,205.000 170.414 C 222.555 161.303,237.736 153.910,250.048 148.475 L 255.264 146.174 255.312 142.420 C 255.338 140.356,255.316 138.677,255.263 138.691 C 255.210 138.704,252.392 139.953,249.000 141.466 M222.833 171.874 C 205.136 175.066,184.355 195.088,171.671 221.167 C 162.305 240.424,166.295 255.862,181.667 259.846 C 194.161 263.085,224.393 244.995,235.535 227.611 C 244.090 214.265,244.239 201.306,235.865 198.947 C 224.389 195.714,188.529 215.249,192.269 222.696 C 193.631 225.408,195.816 225.269,199.594 222.230 C 209.766 214.046,220.013 208.734,229.270 206.846 C 234.105 205.860,235.067 206.726,234.347 211.416 C 232.255 225.049,214.427 242.272,194.373 250.033 C 176.341 257.011,168.495 243.636,178.687 223.295 C 191.201 198.320,209.782 180.890,226.833 178.131 C 232.061 177.285,233.764 175.379,231.401 173.017 C 229.801 171.416,227.255 171.077,222.833 171.874 " stroke="none" fill="#0cbbe3" fill-rule="evenodd"></path><path id="path2" d="M264.000 84.692 C 256.215 85.807,243.928 87.889,198.333 95.819 C 184.261 98.267,175.116 100.112,173.833 100.763 C 173.189 101.090,165.430 107.147,122.333 140.964 C 90.692 165.792,90.680 165.802,91.606 167.834 C 92.113 168.947,92.687 168.928,102.118 167.491 C 114.647 165.583,117.481 165.055,124.607 163.301 C 128.333 162.383,135.233 160.884,139.940 159.969 C 169.522 154.217,178.912 152.155,180.000 151.172 C 182.565 148.853,197.502 138.276,212.500 128.156 C 217.633 124.693,224.059 120.316,226.780 118.429 C 229.501 116.543,231.817 115.000,231.928 115.000 C 232.039 115.000,232.513 114.644,232.982 114.209 C 234.356 112.934,256.065 97.287,256.230 97.453 C 256.313 97.536,256.226 101.405,256.037 106.052 C 255.847 110.698,255.610 120.350,255.508 127.500 C 255.407 134.650,255.247 144.925,255.152 150.333 C 255.057 155.742,254.832 170.142,254.652 182.333 C 254.472 194.525,254.022 216.425,253.653 231.000 C 252.346 282.516,252.560 288.322,255.788 288.944 C 258.857 289.535,259.662 285.745,259.671 270.667 C 259.674 266.175,259.816 257.175,259.987 250.667 C 261.706 185.230,262.033 112.383,260.674 97.706 C 260.287 93.529,260.334 93.443,264.431 90.726 C 267.597 88.628,268.621 87.762,269.035 86.833 C 269.198 86.467,269.514 85.911,269.737 85.599 C 270.529 84.492,268.090 84.106,264.000 84.692 M216.833 127.915 C 202.674 137.423,191.260 145.249,181.170 152.368 C 178.260 154.420,174.818 155.287,148.897 160.495 C 129.756 164.340,126.104 165.118,125.811 165.411 C 125.182 166.041,124.372 184.776,124.867 187.250 L 125.067 188.251 126.783 187.758 C 127.728 187.486,129.475 186.887,130.667 186.425 C 140.493 182.616,148.812 180.354,159.333 178.631 C 162.710 178.078,168.339 178.074,171.070 178.622 L 173.307 179.071 180.764 175.228 L 188.221 171.386 194.527 165.098 C 203.656 155.996,212.482 149.219,221.505 144.382 C 223.335 143.401,226.633 141.621,228.833 140.428 C 231.033 139.234,233.170 138.087,233.581 137.878 C 234.554 137.386,234.810 126.683,234.041 118.667 L 233.833 116.500 216.833 127.915 " stroke="none" fill="#24245c" fill-rule="evenodd"></path><path id="path3" d="M231.333 176.699 C 230.597 177.525,230.034 177.711,226.500 178.301 C 210.660 180.946,194.901 194.871,181.574 218.000 C 172.816 233.199,171.795 245.147,178.853 249.831 C 181.112 251.331,181.620 251.093,180.265 249.170 C 171.659 236.961,201.510 193.543,221.833 188.708 C 228.827 187.045,228.900 187.000,229.845 183.738 C 230.148 182.690,230.524 181.678,230.679 181.488 C 231.252 180.791,232.716 176.250,232.446 176.012 C 232.292 175.876,231.792 176.186,231.333 176.699 M227.833 207.315 C 218.399 209.716,208.455 214.892,200.568 221.509 C 197.890 223.755,197.898 223.989,200.673 224.741 C 203.498 225.506,202.877 225.733,216.333 219.016 C 232.763 210.813,233.022 210.742,232.361 214.628 C 232.058 216.408,231.967 218.333,232.184 218.333 C 233.076 218.333,234.821 209.760,234.291 207.989 C 233.707 206.041,233.091 205.977,227.833 207.315 M267.137 283.820 C 261.236 285.126,252.881 291.900,247.856 299.451 C 236.209 316.956,256.083 323.848,270.475 307.296 C 275.900 301.056,273.934 294.106,267.103 295.377 C 262.399 296.252,255.333 301.352,255.333 303.873 C 255.333 305.016,255.650 305.026,258.138 303.965 C 259.914 303.207,264.917 302.000,266.281 302.000 C 266.800 302.000,262.903 305.533,260.907 306.872 C 256.747 309.663,251.006 310.714,250.725 308.736 C 250.064 304.079,262.288 291.400,269.755 288.998 C 272.126 288.235,272.667 287.694,272.667 286.085 C 272.667 285.102,271.625 283.670,270.904 283.662 C 270.682 283.660,270.200 283.593,269.833 283.514 C 269.467 283.436,268.253 283.573,267.137 283.820 " stroke="none" fill="#f2f336" fill-rule="evenodd"></path><path id="path4" d="M269.583 85.845 C 269.262 86.274,269.000 86.735,269.000 86.870 C 269.000 87.004,268.737 87.426,268.417 87.807 C 267.834 88.499,267.834 88.499,268.583 87.865 C 268.996 87.516,269.333 87.078,269.333 86.891 C 269.333 86.705,269.582 86.277,269.887 85.941 C 270.191 85.604,270.379 85.270,270.304 85.197 C 270.228 85.125,269.904 85.416,269.583 85.845 M260.751 98.833 C 260.754 99.567,260.823 99.827,260.902 99.413 C 260.982 98.998,260.979 98.398,260.896 98.079 C 260.812 97.761,260.747 98.100,260.751 98.833 M256.091 100.667 C 256.091 101.492,256.156 101.829,256.235 101.417 C 256.315 101.004,256.315 100.329,256.235 99.917 C 256.156 99.504,256.091 99.842,256.091 100.667 M261.107 104.667 C 261.107 105.858,261.167 106.346,261.241 105.750 C 261.315 105.154,261.315 104.179,261.241 103.583 C 261.167 102.987,261.107 103.475,261.107 104.667 M255.779 107.667 C 255.779 109.042,255.838 109.604,255.909 108.917 C 255.981 108.229,255.981 107.104,255.909 106.417 C 255.838 105.729,255.779 106.292,255.779 107.667 M261.475 119.000 C 261.475 122.942,261.523 124.554,261.582 122.583 C 261.641 120.612,261.641 117.388,261.582 115.417 C 261.523 113.446,261.475 115.058,261.475 119.000 M255.477 121.667 C 255.477 125.975,255.524 127.737,255.582 125.583 C 255.640 123.429,255.640 119.904,255.582 117.750 C 255.524 115.596,255.477 117.358,255.477 121.667 M234.095 118.500 C 234.098 119.417,234.163 119.752,234.239 119.245 C 234.316 118.739,234.314 117.989,234.235 117.579 C 234.156 117.169,234.093 117.583,234.095 118.500 M234.433 124.000 C 234.433 125.008,234.496 125.421,234.572 124.917 C 234.648 124.412,234.648 123.587,234.572 123.083 C 234.496 122.579,234.433 122.992,234.433 124.000 M302.083 123.243 C 302.771 123.315,303.896 123.315,304.583 123.243 C 305.271 123.171,304.708 123.112,303.333 123.112 C 301.958 123.112,301.396 123.171,302.083 123.243 M234.462 132.333 C 234.462 134.625,234.515 135.563,234.580 134.417 C 234.645 133.271,234.645 131.396,234.580 130.250 C 234.515 129.104,234.462 130.042,234.462 132.333 M316.437 134.500 C 316.438 135.600,316.501 136.010,316.575 135.411 C 316.649 134.812,316.648 133.912,316.572 133.411 C 316.495 132.910,316.435 133.400,316.437 134.500 M254.960 137.927 C 254.851 138.590,254.899 138.901,255.084 138.716 C 255.252 138.548,255.334 138.055,255.266 137.622 C 255.161 136.955,255.114 137.001,254.960 137.927 M254.924 147.583 C 255.116 149.518,255.278 149.659,255.307 147.917 C 255.321 147.046,255.213 146.333,255.067 146.333 C 254.920 146.333,254.856 146.896,254.924 147.583 M293.993 150.583 L 291.167 153.500 294.083 150.674 C 295.688 149.120,297.000 147.807,297.000 147.757 C 297.000 147.515,296.617 147.874,293.993 150.583 M261.481 165.333 C 261.481 170.742,261.527 172.954,261.583 170.250 C 261.639 167.546,261.639 163.121,261.583 160.417 C 261.527 157.712,261.481 159.925,261.481 165.333 M194.495 165.083 L 190.167 169.500 194.583 165.171 C 197.012 162.791,199.000 160.803,199.000 160.755 C 199.000 160.516,198.516 160.981,194.495 165.083 M254.799 167.000 C 254.799 169.658,254.851 170.746,254.914 169.417 C 254.977 168.087,254.977 165.912,254.914 164.583 C 254.851 163.254,254.799 164.342,254.799 167.000 M341.583 165.246 C 342.546 165.313,344.121 165.313,345.083 165.246 C 346.046 165.178,345.258 165.123,343.333 165.123 C 341.408 165.123,340.621 165.178,341.583 165.246 M357.757 168.667 C 357.757 169.492,357.822 169.829,357.902 169.417 C 357.981 169.004,357.981 168.329,357.902 167.917 C 357.822 167.504,357.757 167.842,357.757 168.667 M124.744 175.000 C 124.744 175.642,124.813 175.904,124.896 175.583 C 124.980 175.262,124.980 174.737,124.896 174.417 C 124.813 174.096,124.744 174.358,124.744 175.000 M340.649 176.583 L 339.500 177.833 340.750 176.685 C 341.913 175.615,342.153 175.333,341.899 175.333 C 341.843 175.333,341.281 175.896,340.649 176.583 M164.583 178.241 C 165.179 178.315,166.154 178.315,166.750 178.241 C 167.346 178.167,166.858 178.107,165.667 178.107 C 164.475 178.107,163.987 178.167,164.583 178.241 M348.818 183.417 L 347.500 184.833 348.917 183.516 C 350.234 182.290,350.487 182.000,350.234 182.000 C 350.180 182.000,349.542 182.637,348.818 183.417 M254.471 188.500 C 254.471 191.800,254.521 193.105,254.582 191.400 C 254.643 189.695,254.642 186.995,254.581 185.400 C 254.520 183.805,254.471 185.200,254.471 188.500 M261.144 199.000 C 261.144 203.492,261.191 205.329,261.249 203.083 C 261.307 200.838,261.307 197.162,261.249 194.917 C 261.191 192.671,261.144 194.508,261.144 199.000 M254.140 204.167 C 254.140 207.833,254.188 209.379,254.248 207.601 C 254.308 205.823,254.308 202.823,254.249 200.934 C 254.189 199.045,254.140 200.500,254.140 204.167 M260.804 216.667 C 260.804 219.875,260.854 221.188,260.915 219.583 C 260.976 217.979,260.976 215.354,260.915 213.750 C 260.854 212.146,260.804 213.458,260.804 216.667 M253.795 220.000 C 253.795 222.292,253.848 223.229,253.913 222.083 C 253.979 220.938,253.979 219.063,253.913 217.917 C 253.848 216.771,253.795 217.708,253.795 220.000 M140.411 223.000 C 140.411 223.642,140.479 223.904,140.563 223.583 C 140.647 223.262,140.647 222.737,140.563 222.417 C 140.479 222.096,140.411 222.358,140.411 223.000 M253.457 234.333 C 253.457 236.258,253.512 237.046,253.579 236.083 C 253.646 235.121,253.646 233.546,253.579 232.583 C 253.512 231.621,253.457 232.408,253.457 234.333 M64.812 240.083 L 63.833 241.167 64.917 240.188 C 65.926 239.275,66.153 239.000,65.896 239.000 C 65.838 239.000,65.351 239.487,64.812 240.083 M260.123 247.333 C 260.123 249.258,260.178 250.046,260.246 249.083 C 260.313 248.121,260.313 246.546,260.246 245.583 C 260.178 244.621,260.123 245.408,260.123 247.333 M253.114 248.167 C 253.115 249.633,253.174 250.192,253.244 249.408 C 253.315 248.624,253.314 247.424,253.242 246.741 C 253.171 246.059,253.113 246.700,253.114 248.167 M252.800 262.167 C 252.800 264.917,252.852 265.997,252.915 264.568 C 252.977 263.139,252.977 260.889,252.914 259.568 C 252.851 258.247,252.800 259.417,252.800 262.167 M259.809 265.167 C 259.809 269.200,259.857 270.804,259.916 268.732 C 259.974 266.659,259.974 263.359,259.915 261.398 C 259.856 259.438,259.808 261.133,259.809 265.167 M252.429 276.167 C 252.431 277.083,252.496 277.419,252.573 276.912 C 252.649 276.405,252.647 275.655,252.568 275.245 C 252.489 274.835,252.426 275.250,252.429 276.167 M135.411 277.333 C 135.411 277.975,135.479 278.237,135.563 277.917 C 135.647 277.596,135.647 277.071,135.563 276.750 C 135.479 276.429,135.411 276.692,135.411 277.333 M259.433 282.000 C 259.433 283.008,259.496 283.421,259.572 282.917 C 259.648 282.412,259.648 281.587,259.572 281.083 C 259.496 280.579,259.433 280.992,259.433 282.000 M252.757 282.000 C 252.757 282.825,252.822 283.162,252.902 282.750 C 252.981 282.337,252.981 281.662,252.902 281.250 C 252.822 280.837,252.757 281.175,252.757 282.000 M120.411 286.667 C 120.411 287.308,120.479 287.571,120.563 287.250 C 120.647 286.929,120.647 286.404,120.563 286.083 C 120.479 285.762,120.411 286.025,120.411 286.667 M258.416 287.417 C 258.058 288.396,258.067 288.438,258.510 287.853 C 258.934 287.293,259.184 286.333,258.906 286.333 C 258.855 286.333,258.634 286.821,258.416 287.417 " stroke="none" fill="#9acbe0" fill-rule="evenodd"></path></g></svg>