<?xml version="1.0" standalone="no"?>
<!DOCTYPE svg PUBLIC "-//W3C//DTD SVG 20010904//EN"
 "http://www.w3.org/TR/2001/REC-SVG-20010904/DTD/svg10.dtd">
<svg version="1.0" xmlns="http://www.w3.org/2000/svg"
 width="700.000000pt" height="700.000000pt" viewBox="0 0 700.000000 700.000000"
 preserveAspectRatio="xMidYMid meet">
<metadata>
Created by potrace 1.14, written by Peter Selinger 2001-2017
</metadata>
<g transform="translate(0.000000,700.000000) scale(0.100000,-0.100000)"
fill="#000000" stroke="none">
<path d="M3279 6645 c-3 -2 -35 -6 -73 -10 -97 -8 -224 -26 -342 -49 -483 -94
-990 -340 -1384 -670 -83 -69 -280 -262 -350 -341 -227 -258 -432 -592 -553
-902 -19 -48 -38 -97 -42 -108 -5 -11 -9 -22 -10 -25 -1 -3 -15 -50 -32 -105
-27 -86 -36 -118 -49 -170 -40 -169 -39 -163 -48 -226 -4 -25 -9 -59 -12 -75
-36 -193 -39 -627 -8 -874 85 -667 400 -1311 876 -1792 148 -150 208 -203 354
-314 276 -208 589 -371 919 -479 129 -42 348 -96 440 -109 22 -4 51 -8 65 -11
14 -3 43 -7 65 -10 22 -2 74 -7 115 -12 89 -10 510 -9 595 1 162 18 287 40
425 72 487 114 962 359 1345 694 49 42 258 251 303 303 113 129 275 358 365
519 137 242 271 582 322 818 38 175 58 298 73 445 9 97 9 483 -1 580 -13 121
-29 228 -47 315 -5 25 -12 56 -14 70 -35 212 -182 597 -326 855 -139 250 -313
478 -525 690 -310 310 -655 539 -1058 701 -241 97 -562 179 -780 200 -34 3
-73 8 -87 11 -30 6 -516 14 -521 8z"/>
</g>
</svg>
